<svg width="26" height="25" viewBox="0 0 26 25" fill="none" xmlns="http://www.w3.org/2000/svg">
<path d="M6.87694 23.0469H3.41957C3.00267 23.0469 2.75116 22.8142 2.63837 22.6755C2.44364 22.4359 2.3682 22.1242 2.43153 21.8201C3.44564 16.9489 7.74447 13.3916 12.7072 13.2761C12.7898 13.2792 12.8727 13.2812 12.956 13.2812C13.0401 13.2812 13.1237 13.2792 13.2071 13.276C14.4206 13.3037 15.606 13.5319 16.7343 13.9556C17.2391 14.1453 17.8022 13.8896 17.9918 13.3846C18.1814 12.8797 17.9258 12.3167 17.4208 12.1271C17.2592 12.0664 17.0964 12.0095 16.9328 11.9556C18.5491 10.7432 19.5967 8.81196 19.5967 6.64062C19.5967 2.979 16.6177 0 12.956 0C9.29437 0 6.31542 2.979 6.31542 6.64062C6.31542 8.81392 7.36483 10.7467 8.98353 11.9589C7.50057 12.4471 6.10897 13.2063 4.8911 14.208C2.65809 16.0448 1.1055 18.6067 0.519421 21.422C0.335729 22.3041 0.555749 23.2102 1.12308 23.9078C1.68754 24.6019 2.5246 25 3.41957 25H6.87694C7.4163 25 7.8535 24.5628 7.8535 24.0234C7.8535 23.4841 7.4163 23.0469 6.87694 23.0469ZM8.26854 6.64062C8.26854 4.05591 10.3713 1.95312 12.956 1.95312C15.5408 1.95312 17.6435 4.05591 17.6435 6.64062C17.6435 9.14878 15.6634 11.203 13.1843 11.3225C13.1082 11.3211 13.0322 11.32 12.956 11.32C12.8797 11.32 12.8034 11.3211 12.7271 11.3225C10.2483 11.2026 8.26854 9.14853 8.26854 6.64062Z" fill="#2E2EAA"/>
<path d="M24.7085 16.8265C24.2905 15.8915 23.3489 15.2856 22.3073 15.2832H19.2618C19.2596 15.2832 19.2575 15.2832 19.2553 15.2832C18.1567 15.2832 17.1982 15.9307 16.8125 16.9339C16.7612 17.0674 16.6984 17.2356 16.6329 17.4316H10.2391C9.97507 17.4316 9.72234 17.5385 9.5384 17.7279L7.86086 19.4559C7.49138 19.8364 7.49324 20.4423 7.86501 20.8206L9.574 22.5595C9.75759 22.7463 10.0086 22.8515 10.2705 22.8515H13.4443C13.9837 22.8515 14.4209 22.4143 14.4209 21.875C14.4209 21.3356 13.9837 20.8984 13.4443 20.8984H10.68L9.92663 20.1319L10.6521 19.3848H17.3655C17.8154 19.3848 18.2071 19.0774 18.314 18.6404C18.393 18.3178 18.4922 18.0077 18.6355 17.6348C18.7301 17.3889 18.9675 17.2363 19.2576 17.2363C19.2583 17.2363 19.2589 17.2363 19.2595 17.2363H22.305C22.5812 17.237 22.8189 17.3854 22.9254 17.6236C23.1875 18.2102 23.5006 19.1182 23.5029 20.1132C23.5052 21.1156 23.1926 22.0444 22.9297 22.6471C22.8238 22.8901 22.5841 23.0469 22.3164 23.0469C22.3159 23.0469 22.3154 23.0469 22.3148 23.0469H19.2325C18.9624 23.0462 18.7093 22.8724 18.6029 22.6144C18.4886 22.3375 18.3897 22.0213 18.3003 21.6477C18.1747 21.1232 17.6476 20.7998 17.1233 20.9252C16.5987 21.0508 16.2753 21.5778 16.4008 22.1023C16.5141 22.5759 16.6439 22.987 16.7973 23.359C17.2074 24.3534 18.1615 24.9975 19.2303 25H22.3126C22.3147 25 22.3166 25 22.3187 25C23.3613 24.9999 24.3034 24.3833 24.7201 23.4276C25.0576 22.6537 25.4592 21.4496 25.456 20.1085C25.4529 18.7712 25.0478 17.5856 24.7085 16.8265Z" fill="#2E2EAA"/>
<path d="M21.501 21.0938C22.0403 21.0938 22.4775 20.6565 22.4775 20.1172C22.4775 19.5778 22.0403 19.1406 21.501 19.1406C20.9616 19.1406 20.5244 19.5778 20.5244 20.1172C20.5244 20.6565 20.9616 21.0938 21.501 21.0938Z" fill="#2E2EAA"/>
</svg>
